# xmcd
#
# Track frame offsets:
#	150
#	12942
#	27382
#	42208
#	58953
#	77907
#
# Disc length: 1222 seconds
#
# Revision: 0
# Processed by: cddbd v1.5.2PL0 Copyright (c) Steve Scherf et al.
# Submitted via: EasyCDDAExtractor 10.0.5.1
#
DISCID=4804c406
DTITLE=easy rider - der ketzer von naumburg
DYEAR=1998
DGENRE=Easy Listening
TTITLE0=buch im fels
TTITLE1=the rose
TTITLE2=kaiser und könige lebten hier (burgenlandkreislied)
TTITLE3=grandpa
TTITLE4=der naumburger meister
TTITLE5=die kleine countrywelt (one star state 1865)
EXTD=
EXTT0=
EXTT1=
EXTT2=
EXTT3=
EXTT4=
EXTT5=
PLAYORDER=
